<?xml version="1.0" encoding="UTF-8"?>
<svg version="1.1" xmlns="http://www.w3.org/2000/svg" width="1024" height="1024">
<path d="M0 0 C337.92 0 675.84 0 1024 0 C1024 337.92 1024 675.84 1024 1024 C686.08 1024 348.16 1024 0 1024 C0 686.08 0 348.16 0 0 Z " fill="#070707" transform="translate(0,0)"/>
<path d="M0 0 C200.14084507 0 200.14084507 0 245 40 C245.87269531 40.7528125 246.74539063 41.505625 247.64453125 42.28125 C277.24468163 68.19802335 289.18126664 106.22069747 291.7945652 144.50238609 C292.32751722 154.61396789 292.14758684 164.76410877 292.14526367 174.88598633 C292.14825989 177.49770149 292.15166348 180.10941622 292.15544128 182.72113037 C292.16370081 189.05362048 292.16649403 195.38610127 292.16705366 201.71859632 C292.16753128 206.87632494 292.16959823 212.03405052 292.17275429 217.19177818 C292.18154984 231.86821922 292.18617566 246.54465298 292.18542381 261.22109667 C292.18536388 262.40462379 292.18536388 262.40462379 292.18530273 263.61206055 C292.18526185 264.40206114 292.18522097 265.19206173 292.18517885 266.00600173 C292.18477321 278.78225786 292.19432502 291.55848439 292.2084411 304.33473197 C292.2228763 317.50559253 292.22970731 330.67643873 292.22884732 343.84730738 C292.2285177 351.22053732 292.23116044 358.59373627 292.24202538 365.966959 C292.25122525 372.24976109 292.25322938 378.53251818 292.24651595 384.81532416 C292.2432971 388.00834944 292.24415371 391.20127287 292.2518692 394.39429283 C292.29782971 414.75706645 292.29777542 435.6807469 287.6875 455.625 C287.46876221 456.61242187 287.25002441 457.59984375 287.0246582 458.6171875 C281.84955412 481.29932169 272.0485993 501.21272503 257 519 C255.98486328 520.21816406 255.98486328 520.21816406 254.94921875 521.4609375 C234.44642843 545.2246835 205.01205056 559.74965301 174.9375 567.25 C174.02492432 567.48412598 173.11234863 567.71825195 172.17211914 567.95947266 C118.51170222 580.58598554 45.73292538 573 0 573 C0 383.91 0 194.82 0 0 Z " fill="#FAFAF9" transform="translate(195,220)"/>
<path d="M0 0 C90.75 0 181.5 0 275 0 C275 72.19454066 275 72.19454066 266.25 89.84375 C265.91533218 90.52698334 265.58066437 91.21021667 265.2358551 91.91415405 C264.52612517 93.36301495 263.81501226 94.81119913 263.10256958 96.25872803 C257.45570175 107.73751978 251.90123852 119.24933002 246.5625 130.875 C241.15622691 142.63553307 235.51568419 154.27137297 229.82702637 165.89718628 C224.8725559 176.02686966 220.01398592 186.18779068 215.3125 196.4375 C210.94483995 205.95790185 206.35728564 215.34517159 201.625 224.6875 C196.46829524 234.8708809 191.59804212 245.14312901 186.9375 255.5625 C180.82438132 269.22454183 174.34909602 282.69138254 167.75 296.125 C167.0316095 297.58776367 167.0316095 297.58776367 166.29870605 299.08007812 C164.4361067 302.87144208 162.57268208 306.66239838 160.70785522 310.45266724 C153.69466787 324.71073827 146.84325691 339.0221244 140.39770508 353.54638672 C137.72519568 359.51760019 134.84315936 365.35847713 131.875 371.1875 C127.15684816 380.46313922 122.82776375 389.88588022 118.5625 399.375 C113.65217196 410.2986648 108.55680095 421.08209267 103.12597656 431.75976562 C100.18173128 437.56894992 97.43116707 443.41164918 94.8125 449.375 C87.98126832 464.45694007 80.40446679 479.19106642 73 494 C139.33 494 205.66 494 274 494 C274 520.07 274 546.14 274 573 C177.31 573 80.62 573 -19 573 C-19 567.06 -19 561.12 -19 555 C-19.08412574 549.75251821 -19.08412574 549.75251821 -19.1809845 544.50526428 C-19.26437327 539.50040588 -19.27719552 534.49595944 -19.28686523 529.49047852 C-19.3038516 526.88768188 -19.34393487 524.28492585 -19.40795898 521.68286133 C-19.86966961 501.89687165 -16.24716858 487.99292294 -6.53079224 470.75253296 C-4.62247351 467.32116582 -2.9865693 463.83914544 -1.37890625 460.2578125 C-0.90646484 459.23107422 -0.43402344 458.20433594 0.05273438 457.14648438 C0.50970703 456.14939453 0.96667969 455.15230469 1.4375 454.125 C6.14378377 443.92131481 10.97628791 433.78497012 15.88497925 423.67779541 C20.18124898 414.8266821 24.37880603 405.93426722 28.5 397 C33.18792037 386.83713613 37.9978295 376.74000572 42.88726807 366.67321777 C47.14245266 357.9074262 51.29732634 349.10006209 55.375 340.25 C60.45441916 329.23003165 65.70544734 318.30374985 71.025177 307.39840698 C75.7292875 297.75067489 80.32527195 288.0631508 84.8125 278.3125 C89.04580957 269.11838165 93.42670245 260.02168649 97.98876953 250.98657227 C106.28101018 234.55043428 114.01909719 217.84343065 121.8427124 201.18087769 C126.61016284 191.03076277 131.42660068 180.90613451 136.3125 170.8125 C136.60293182 170.21245148 136.89336365 169.61240295 137.19259644 168.99417114 C138.60564414 166.07532057 140.01930699 163.15676823 141.43310547 160.23828125 C149.0359619 144.52555334 156.49285861 128.74460033 163.90380859 112.94067383 C169.54224107 100.93033666 175.2748535 88.97076086 181 77 C120.94 77 60.88 77 -1 77 C-1 51.33116892 -0.47526724 25.66443083 0 0 Z " fill="#FBFAFA" transform="translate(539,220)"/>
<path d="M0 0 C76.94087927 0 76.94087927 0 98.34375 21.18359375 C112.92797816 36.64716508 118.156864 55.98084636 118.14044189 76.71240234 C118.14341302 77.88794646 118.14638414 79.06349058 118.1494453 80.27465725 C118.15660121 83.52494593 118.15930271 86.77520233 118.16004276 90.02549767 C118.16190009 93.53626609 118.1694509 97.0470232 118.17617798 100.55778503 C118.18973531 108.22961904 118.19578219 115.90144779 118.20018864 123.57329178 C118.20295593 128.36908325 118.20719421 133.16487272 118.21169281 137.96066284 C118.22388297 151.25394056 118.2341822 164.54721669 118.2375679 177.84049988 C118.23789725 179.11568044 118.23789725 179.11568044 118.23823325 180.41662222 C118.23856067 181.69475929 118.23856067 181.69475929 118.2388947 182.99871731 C118.23933816 184.72521909 118.23978472 186.45172087 118.24023438 188.17822266 C118.2404558 189.03461716 118.24067723 189.89101166 118.24090537 190.77335751 C118.24484979 204.63673585 118.26229407 218.50006152 118.2855939 232.36341953 C118.30935426 246.61656207 118.32177191 260.86967823 118.32293582 275.12284088 C118.32385004 283.11738455 118.3295383 291.1118596 118.34775543 299.10638428 C118.36321991 305.91666184 118.36823976 312.72684958 118.36001733 319.53714138 C118.3561329 323.00637251 118.356931 326.47542312 118.37107468 329.94463158 C118.45664684 355.21875702 116.62816569 377.81015231 98.375 397.1875 C71.42326103 422.95139637 35.65035777 417 0 417 C0 279.39 0 141.78 0 0 Z " fill="#070707" transform="translate(281,297)"/>
</svg>
