<svg xmlns="http://www.w3.org/2000/svg" width="42" height="48" viewBox="0 0 42 48">
    <g fill="none" fill-rule="nonzero">
        <path fill="#303536" d="M41.974 33.402V14.598a4.945 4.945 0 0 0-2.44-4.27L23.427.926a4.82 4.82 0 0 0-4.878 0L2.439 10.328A4.937 4.937 0 0 0 0 14.598v18.804c0 1.762.93 3.39 2.44 4.27l16.108 9.402a4.82 4.82 0 0 0 4.878 0l16.109-9.402a4.945 4.945 0 0 0 2.439-4.27z"/>
        <path fill="#FFF" d="M19.304 18.665h-4.552a.262.262 0 0 0-.26.263V29.04c0 .146.116.264.26.264h4.552c3.913 0 5.693-2.374 5.693-5.322-.008-2.946-1.78-5.317-5.693-5.317zm-.26 8.03h-1.26a.076.076 0 0 1-.076-.076v-5.256a.075.075 0 0 1 .076-.076h1.26c2.407 0 2.642 1.756 2.642 2.705 0 .95-.235 2.703-2.643 2.703zM38.66 29.011l-1.538-10.112a.262.262 0 0 0-.261-.226h-1.537a.378.378 0 0 0-.339.216l-2.898 6.15a.078.078 0 0 1-.138 0l-2.88-6.158a.378.378 0 0 0-.34-.216h-1.536a.262.262 0 0 0-.26.226l-1.537 10.12a.266.266 0 0 0 .06.214.26.26 0 0 0 .2.092h2.648c.134 0 .247-.1.261-.235l.522-4.467a.037.037 0 0 1 .035-.028c.017 0 .031.011.035.028l1.92 4.552a.26.26 0 0 0 .24.16h1.427a.26.26 0 0 0 .24-.16l1.92-4.552a.037.037 0 0 1 .036-.028c.016 0 .03.011.035.028l.522 4.467a.262.262 0 0 0 .26.235H38.4a.26.26 0 0 0 .201-.092.266.266 0 0 0 .06-.214zM11.58 25.561a.225.225 0 0 0-.32.035c-.515.629-1.28.993-2.088.991-1.476 0-2.674-1-2.674-2.608 0-1.609 1.187-2.616 2.664-2.616.807 0 1.573.364 2.087.994a.226.226 0 0 0 .32.032l1.876-1.583a.265.265 0 0 0 .029-.377 5.815 5.815 0 0 0-4.435-1.97c-3.391 0-5.846 2.479-5.846 5.538 0 3.06 2.497 5.539 5.846 5.539a5.834 5.834 0 0 0 4.456-2.002.266.266 0 0 0-.029-.377L11.58 25.56z"/>
    </g>
</svg>
